# xmcd
#
# Track frame offsets: 
#        150
#        14425
#        34335
#        53125
#        70455
#        87985
#        108115
#        125392
#        143082
#        161345
#        181782
#        196380
#
# Disc length: 2886 seconds
#
# Revision: 11
# Processed by: cddbd v1.5.2PL0 Copyright (c) Steve Scherf et al.
# Submitted via: ExactAudioCopy v1.3
#
DISCID=9d0b440c
DTITLE=Trisha Yearwood - Real Live Woman
DYEAR=2000
DGENRE=Country
TTITLE0=Where Are You Now
TTITLE1=One Love
TTITLE2=Sad Eyes
TTITLE3=Some Days
TTITLE4=I Did
TTITLE5=Try Me Again
TTITLE6=Too Bad You're No Good
TTITLE7=Real Live Woman
TTITLE8=I'm Still Alive
TTITLE9=Wild For You Baby
TTITLE10=Come Back When It Ain't Rainin'
TTITLE11=When A Love Song Sings The Blues
EXTD=YEAR: 2000
EXTT0=
EXTT1=
EXTT2=
EXTT3=
EXTT4=
EXTT5=
EXTT6=
EXTT7=
EXTT8=
EXTT9=
EXTT10=
EXTT11=
PLAYORDER=
